<svg width="24" height="24" viewBox="0 0 24 24" fill="none" xmlns="http://www.w3.org/2000/svg">
<path d="M12 2C13.1046 2 14 2.89543 14 4C14 5.10457 13.1046 6 12 6C10.8954 6 10 5.10457 10 4C10 2.89543 10.8954 2 12 2Z" stroke="#666" stroke-width="2"/>
<path d="M7 9H17C17.5523 9 18 9.44772 18 10V11C18 11.5523 17.5523 12 17 12H16V20C16 21.1046 15.1046 22 14 22H10C8.89543 22 8 21.1046 8 20V12H7C6.44772 12 6 11.5523 6 11V10C6 9.44772 6.44772 9 7 9Z" stroke="#666" stroke-width="2"/>
<circle cx="8.5" cy="15" r="1.5" fill="#666"/>
<circle cx="15.5" cy="15" r="1.5" fill="#666"/>
</svg>
