<svg width="24" height="24" viewBox="0 0 24 24" fill="none" xmlns="http://www.w3.org/2000/svg">
<path d="M21 8C21 8 19 6 16 6C14 6 12 7 10 7C8 7 6 6 6 6L3 8L6 10C6 10 8 9 10 9C12 9 14 10 16 10C19 10 21 8 21 8Z" stroke="#666" stroke-width="2" stroke-linecap="round" stroke-linejoin="round"/>
<path d="M9 16L6 14L3 16L6 18C6 18 8 17 10 17C12 17 14 18 16 18C19 18 21 16 21 16L18 14L15 16" stroke="#666" stroke-width="2" stroke-linecap="round" stroke-linejoin="round"/>
<circle cx="8" cy="6" r="2" stroke="#666" stroke-width="2"/>
</svg>
