<svg viewBox="0 0 100 100" xmlns="http://www.w3.org/2000/svg">
  <!-- 背景圆形 -->
  <circle cx="50" cy="50" r="50" fill="#56CCF2"/>
  
  <!-- 企鹅身体主体 -->
  <ellipse cx="50" cy="55" rx="28" ry="35" fill="#000000"/>
  
  <!-- 企鹅肚子 -->
  <ellipse cx="50" cy="58" rx="18" ry="25" fill="#FFFFFF"/>
  
  <!-- 企鹅头部 -->
  <ellipse cx="50" cy="35" rx="22" ry="20" fill="#000000"/>
  
  <!-- 企鹅脸部 -->
  <ellipse cx="50" cy="38" rx="16" ry="14" fill="#FFFFFF"/>
  
  <!-- 眼睛 -->
  <circle cx="42" cy="32" r="4" fill="#000000"/>
  <circle cx="58" cy="32" r="4" fill="#000000"/>
  <circle cx="43" cy="31" r="1.5" fill="#FFFFFF"/>
  <circle cx="59" cy="31" r="1.5" fill="#FFFFFF"/>
  
  <!-- 嘴巴 -->
  <ellipse cx="50" cy="42" rx="3" ry="2" fill="#FFA500"/>
  
  <!-- 围巾 -->
  <ellipse cx="50" cy="50" rx="20" ry="4" fill="#FF6B6B"/>
  <rect x="68" y="48" width="8" height="15" rx="4" fill="#FF6B6B"/>
  <rect x="70" y="50" width="4" height="2" fill="#FF4444"/>
  <rect x="70" y="53" width="4" height="2" fill="#FF4444"/>
  <rect x="70" y="56" width="4" height="2" fill="#FF4444"/>
  
  <!-- 翅膀 -->
  <ellipse cx="25" cy="55" rx="8" ry="20" fill="#000000"/>
  <ellipse cx="75" cy="55" rx="8" ry="20" fill="#000000"/>
  
  <!-- 脚 -->
  <ellipse cx="42" cy="85" rx="6" ry="8" fill="#FFA500"/>
  <ellipse cx="58" cy="85" rx="6" ry="8" fill="#FFA500"/>
  
  <!-- 可爱的腮红 -->
  <circle cx="32" cy="40" r="3" fill="#FFB6C1" opacity="0.6"/>
  <circle cx="68" cy="40" r="3" fill="#FFB6C1" opacity="0.6"/>
</svg>
